<svg width="400" height="400" viewBox="0 0 400 400" xmlns="http://www.w3.org/2000/svg">
  <rect width="100%" height="100%" fill="none" />

  <g fill="#2D9A9A">
    <circle cx="160" cy="140" r="35" /> <path d="M135 180 Q130 300 140 320 H175 Q185 300 180 180 Z" /> <rect x="160" y="195" width="45" height="15" rx="7.5" transform="rotate(-10 160 195)" /> </g>

  <g fill="#F27121">
    <circle cx="240" cy="140" r="35" /> <path d="M265 180 Q270 300 260 320 H225 Q215 300 220 180 Z" /> <rect x="230" y="200" width="40" height="15" rx="7.5" transform="rotate(45 230 200)" /> </g>

  <text x="145" y="260" font-family="monospace" font-size="40" fill="white" font-weight="bold">{</text>
  <text x="235" y="260" font-family="monospace" font-size="40" fill="white" font-weight="bold">}</text>

  <g stroke="#F27121" stroke-width="3" stroke-linecap="round">
    <line x1="200" y1="160" x2="200" y2="145" />
    <line x1="190" y1="175" x2="175" y2="170" />
    <line x1="210" y1="175" x2="225" y2="170" />
  </g>

  <text x="200" y="370" font-family="sans-serif" font-size="42" fill="#333" text-anchor="middle" font-weight="600">cachebro</text>
</svg>
