<?xml version="1.0" encoding="UTF-8" standalone="no"?>
<!DOCTYPE svg PUBLIC "-//W3C//DTD SVG 1.1//EN" "http://www.w3.org/Graphics/SVG/1.1/DTD/svg11.dtd">
<svg xmlns="http://www.w3.org/2000/svg" version="1.1" viewBox="0.00 0.00 1024.00 1024.00">
<g stroke-width="2.00" fill="none" stroke-linecap="butt">
<path stroke="#9ed4d0" vector-effect="non-scaling-stroke" d="
  M 487.30 292.86
  Q 487.35 286.59 486.06 278.25
  Q 484.90 270.78 482.94 263.86
  Q 478.69 248.93 468.53 236.99
  Q 447.45 212.22 416.32 208.09
  Q 406.98 206.86 398.73 207.90
  C 389.07 209.12 378.59 211.52 369.53 216.52
  C 357.93 222.94 347.13 231.68 339.86 242.87
  C 331.09 256.36 325.41 272.56 326.19 288.60
  Q 326.66 298.26 328.57 307.09
  C 331.89 322.37 343.68 339.56 356.18 349.08
  Q 365.72 356.35 381.51 362.47
  Q 386.47 364.39 391.50 365.02
  C 405.33 366.75 419.71 366.27 432.52 361.80
  Q 436.45 360.43 442.80 356.77
  Q 449.80 352.73 452.71 350.93
  C 462.43 344.91 468.15 337.72 474.47 328.74
  C 480.64 319.98 482.77 310.93 485.59 300.88
  Q 485.70 300.51 485.63 299.73
  A 0.45 0.45 0.0 0 0 484.82 299.50
  Q 482.67 302.41 479.58 300.61
  A 8.60 8.53 -5.6 0 1 477.43 298.86
  L 460.23 279.65
  A 4.17 4.16 44.2 0 1 460.15 274.19
  L 460.27 274.04
  A 3.36 3.36 0.0 0 1 465.06 274.01
  Q 475.81 284.82 485.42 297.19
  A 0.41 0.41 0.0 0 0 486.15 296.97
  Q 486.25 295.74 486.91 294.52
  Q 487.30 293.81 487.30 292.86"
/>
<path stroke="#f5bb9b" vector-effect="non-scaling-stroke" d="
  M 592.99 363.50
  Q 593.62 363.96 594.37 364.10
  Q 609.26 367.01 626.03 365.30
  C 636.25 364.26 645.33 359.67 654.59 354.32
  C 664.64 348.51 671.31 341.83 678.01 332.36
  C 690.58 314.59 695.62 290.61 690.06 268.73
  C 685.66 251.46 677.06 237.20 663.20 226.05
  Q 653.64 218.35 645.54 214.78
  Q 616.37 201.92 585.69 211.98
  C 569.75 217.21 555.66 228.59 545.95 241.95
  Q 539.53 250.80 536.18 261.71
  C 532.24 274.55 529.95 289.00 533.06 302.02
  Q 537.02 318.57 546.93 333.18
  A 1.21 1.21 0.0 0 0 548.51 333.57
  Q 563.00 325.77 577.72 332.42
  C 589.06 337.54 595.49 350.48 592.64 362.59
  A 0.88 0.87 24.2 0 0 592.99 363.50"
/>
<path stroke="#f5bb9b" vector-effect="non-scaling-stroke" d="
  M 513.5985 260.7807
  A 3.61 3.61 0.0 0 0 509.9697 257.1897
  L 509.7497 257.1908
  A 3.61 3.61 0.0 0 0 506.1586 260.8197
  L 506.3015 288.0993
  A 3.61 3.61 0.0 0 0 509.9303 291.6903
  L 510.1503 291.6892
  A 3.61 3.61 0.0 0 0 513.7414 288.0603
  L 513.5985 260.7807"
/>
<path stroke="#f5bb9b" vector-effect="non-scaling-stroke" d="
  M 510.19 341.18
  Q 510.75 341.18 510.83 340.63
  Q 511.46 335.87 513.10 332.13
  C 515.48 326.68 522.60 323.48 528.20 322.72
  A 0.46 0.46 0.0 0 0 528.23 321.81
  C 522.05 320.52 516.59 318.35 513.35 313.14
  C 511.78 310.62 511.11 306.93 510.45 304.08
  Q 510.33 303.54 509.95 303.54
  Q 509.57 303.54 509.45 304.08
  C 508.82 306.94 508.20 310.64 506.66 313.18
  C 503.49 318.43 498.06 320.67 491.90 322.04
  A 0.46 0.46 0.0 0 0 491.94 322.95
  C 497.55 323.64 504.71 326.75 507.16 332.17
  Q 508.85 335.89 509.54 340.64
  Q 509.62 341.19 510.19 341.18"
/>
<path stroke="#9ed4d0" vector-effect="non-scaling-stroke" d="
  M 520.74 349.58
  Q 516.08 348.97 509.50 348.99
  Q 500.50 349.03 485.79 349.14
  C 479.76 349.19 472.75 348.21 466.63 348.64
  Q 464.83 348.77 463.31 350.31
  Q 456.13 357.56 448.63 361.41
  Q 441.55 365.04 431.53 368.41
  C 418.43 372.81 401.49 374.32 387.41 370.68
  C 378.83 368.45 372.22 366.94 365.52 362.68
  A 1.11 1.10 -44.4 0 0 364.35 362.67
  Q 360.00 365.33 356.20 369.54
  A 2.98 2.96 -26.3 0 0 355.45 371.73
  Q 356.12 381.10 351.79 391.82
  C 347.34 402.81 339.16 409.32 327.90 412.45
  A 1.88 1.87 -4.0 0 0 326.53 414.02
  C 325.13 424.43 323.07 434.86 322.12 444.08
  Q 317.67 487.46 318.41 530.07
  C 318.60 541.11 320.35 555.23 320.38 565.75
  C 320.45 599.82 315.81 635.61 311.91 670.73
  C 310.62 682.35 315.96 693.89 327.13 698.91
  C 341.65 705.44 356.65 694.84 361.91 681.42
  Q 367.41 667.41 372.16 651.71
  Q 382.98 616.01 390.63 585.80
  A 0.98 0.98 0.0 0 1 391.46 585.08
  L 424.05 581.30
  A 0.77 0.77 0.0 0 1 424.90 581.97
  C 428.30 610.44 429.90 640.06 431.10 669.19
  C 431.47 678.13 432.90 685.24 437.39 691.17
  C 442.99 698.55 454.02 702.58 463.19 699.95
  C 474.71 696.65 481.11 685.85 483.27 674.48
  Q 486.34 658.36 487.66 646.63
  Q 492.50 603.43 493.30 559.00
  Q 493.93 524.61 494.02 514.75
  Q 494.36 481.41 490.49 447.26
  Q 490.04 443.25 488.85 435.32
  A 0.50 0.50 0.0 0 0 488.23 434.91
  Q 476.67 438.03 462.65 440.05
  A 1.04 1.04 0.0 0 0 461.85 441.51
  C 465.10 448.61 464.76 454.63 464.71 463.02
  C 464.66 470.50 466.71 476.07 475.18 476.00
  A 0.82 0.82 0.0 0 1 476.01 476.82
  L 476.01 486.61
  A 0.70 0.70 0.0 0 1 475.31 487.31
  Q 465.47 487.38 465.04 497.02
  Q 464.87 500.82 464.90 510.75
  Q 464.93 519.10 459.36 525.64
  Q 452.76 533.40 441.72 532.12
  A 0.69 0.68 -86.7 0 1 441.12 531.44
  L 441.12 521.53
  A 0.64 0.64 0.0 0 1 441.77 520.89
  Q 451.55 521.03 452.01 511.40
  Q 452.47 501.68 452.49 496.77
  Q 452.53 488.27 458.35 482.50
  A 0.77 0.77 0.0 0 0 458.38 481.43
  Q 452.77 475.37 452.58 467.69
  Q 452.27 454.68 452.17 453.29
  C 451.81 447.86 449.32 442.50 442.97 442.56
  Q 423.16 442.75 409.91 441.39
  A 1.20 1.19 30.8 0 0 409.14 441.58
  L 408.24 442.19
  A 1.26 1.25 -63.7 0 1 407.60 442.41
  C 400.88 442.77 398.09 448.29 398.10 454.38
  Q 398.12 464.57 396.54 472.51
  Q 395.52 477.58 391.90 480.88
  A 0.95 0.94 47.3 0 0 391.85 482.22
  C 398.31 489.07 398.18 497.87 397.96 506.59
  Q 397.79 513.38 399.35 516.17
  Q 402.09 521.07 408.44 520.66
  A 0.70 0.70 0.0 0 1 409.18 521.36
  L 409.18 531.36
  A 0.94 0.93 88.0 0 1 408.31 532.30
  C 395.46 533.25 385.68 524.75 385.39 511.84
  Q 385.07 497.35 385.05 497.09
  C 384.78 491.45 381.47 487.38 375.75 487.33
  Q 375.10 487.33 374.58 487.29
  A 0.55 0.55 0.0 0 1 374.07 486.74
  L 374.07 476.89
  A 0.76 0.76 0.0 0 1 374.65 476.15
  C 376.07 475.80 378.22 475.98 379.65 475.41
  Q 383.87 473.72 384.51 469.48
  Q 385.47 463.09 385.72 450.79
  Q 385.87 443.30 390.68 438.00
  A 0.60 0.59 -63.6 0 0 390.35 437.01
  Q 385.44 436.11 382.38 433.98
  A 0.81 0.81 0.0 0 1 382.77 432.51
  Q 383.07 432.49 384.58 432.63
  C 390.33 433.17 397.00 434.70 403.14 434.99
  C 424.04 435.96 441.13 436.29 459.12 434.14
  Q 466.69 433.24 474.28 431.30
  C 482.27 429.27 490.73 427.97 498.43 424.91
  Q 502.99 423.09 520.41 415.84
  Q 525.52 413.72 529.78 411.09
  C 537.31 406.43 539.21 405.25 546.14 401.32
  C 554.81 396.40 562.54 389.94 569.98 383.98
  C 579.50 376.34 586.61 369.91 587.11 357.76
  Q 587.47 349.12 581.36 342.93
  Q 572.52 333.98 560.94 336.45
  Q 552.60 338.23 546.93 341.95
  Q 530.25 352.89 528.04 354.05
  C 519.49 358.55 508.85 365.39 500.09 368.83
  Q 488.46 373.40 477.56 377.07
  C 465.11 381.26 451.65 382.48 438.75 382.95
  Q 419.22 383.68 400.56 379.69
  Q 400.09 379.59 399.74 379.37
  A 0.51 0.51 0.0 0 1 399.89 378.44
  Q 405.67 377.01 412.25 376.97
  Q 424.02 376.90 435.70 376.89
  C 450.20 376.87 463.95 373.37 477.48 370.21
  Q 479.65 369.70 480.98 369.16
  C 483.91 367.95 486.55 367.28 489.52 365.91
  C 499.34 361.41 511.01 357.17 520.99 350.64
  A 0.58 0.58 0.0 0 0 520.74 349.58"
/>
<path stroke="#f5bb9b" vector-effect="non-scaling-stroke" d="
  M 357.84 358.27
  L 349.06 351.27
  A 0.83 0.78 60.6 0 0 348.48 351.09
  Q 335.87 352.25 326.07 358.56
  C 318.41 363.50 312.79 373.11 310.23 381.50
  C 308.06 388.57 308.17 398.52 314.32 403.69
  C 321.17 409.44 330.21 406.66 336.30 401.23
  Q 342.06 396.09 346.01 388.66
  C 348.71 383.59 349.15 379.65 348.81 373.68
  C 348.58 369.65 348.70 367.33 351.51 364.77
  Q 353.72 362.75 357.83 359.54
  A 0.81 0.81 0.0 0 0 357.84 358.27"
/>
<path stroke="#9ed4d0" vector-effect="non-scaling-stroke" d="
  M 671.15 351.14
  A 1.66 1.65 -62.2 0 0 669.85 351.55
  L 661.96 358.61
  A 0.57 0.57 0.0 0 0 661.99 359.48
  C 664.67 361.59 669.43 365.96 669.57 369.26
  Q 669.98 378.73 670.35 380.37
  C 673.41 393.84 683.28 408.96 698.94 405.68
  C 713.29 402.68 710.39 383.18 705.58 374.04
  C 701.85 366.98 695.31 359.40 687.86 355.98
  Q 679.60 352.18 671.15 351.14"
/>
<path stroke="#f5bb9b" vector-effect="non-scaling-stroke" d="
  M 518.12 424.29
  A 0.20 0.20 0.0 0 0 518.16 424.66
  L 529.79 427.46
  A 0.92 0.92 0.0 0 1 530.49 428.49
  C 526.19 458.86 524.25 489.29 524.56 521.25
  Q 524.84 550.88 526.18 587.99
  Q 527.89 635.26 534.79 672.56
  Q 536.24 680.43 538.31 684.64
  C 541.27 690.67 546.33 696.48 552.83 698.95
  C 561.53 702.27 571.28 700.53 578.17 694.20
  C 584.72 688.18 587.12 679.36 587.38 670.77
  C 588.25 642.64 589.71 611.00 593.64 581.66
  A 0.30 0.30 0.0 0 1 593.98 581.40
  L 627.02 584.91
  A 1.19 1.18 -3.4 0 1 628.05 585.82
  Q 634.70 614.11 644.18 645.91
  Q 648.80 661.42 652.87 672.65
  Q 655.78 680.69 658.30 685.45
  C 661.98 692.42 669.52 698.64 677.44 700.22
  C 695.50 703.84 708.65 687.89 706.66 671.01
  Q 703.16 641.20 700.77 618.25
  C 698.37 595.23 696.60 569.79 698.24 545.07
  Q 699.06 532.61 698.64 520.23
  Q 698.41 513.28 695.28 504.71
  Q 688.13 485.14 682.40 473.08
  C 680.84 469.80 678.37 465.09 675.72 461.33
  Q 666.93 448.86 660.27 435.98
  Q 659.44 434.37 659.16 432.94
  A 0.31 0.31 0.0 0 1 659.67 432.66
  Q 671.13 443.27 678.78 454.72
  Q 680.95 457.97 691.03 475.52
  C 694.04 480.75 696.53 487.42 698.09 492.40
  Q 706.72 520.05 710.95 547.53
  C 712.79 559.52 723.52 570.87 736.29 568.87
  C 747.58 567.11 755.03 557.06 755.91 545.92
  C 757.14 530.46 754.80 515.06 751.32 498.64
  C 746.15 474.26 737.72 452.22 724.61 431.36
  C 719.09 422.57 714.99 416.00 708.74 408.98
  A 0.55 0.55 0.0 0 0 708.01 408.90
  Q 703.02 412.52 696.72 413.05
  C 687.88 413.79 678.29 407.16 672.41 400.56
  Q 665.92 393.28 664.26 384.11
  C 663.59 380.43 663.84 376.38 663.89 372.25
  Q 663.91 369.94 661.87 368.18
  Q 657.93 364.77 655.03 362.85
  A 0.90 0.88 49.1 0 0 654.16 362.78
  Q 639.52 369.63 625.77 372.04
  Q 609.60 374.87 591.67 370.10
  A 0.84 0.84 0.0 0 0 590.74 370.47
  Q 582.42 384.26 570.12 392.90
  Q 559.43 400.40 544.87 410.11
  Q 542.41 411.74 539.11 413.35
  Q 533.38 416.14 518.12 424.29"
/>
<path stroke="#a1a4a5" vector-effect="non-scaling-stroke" d="
  M 464.61 774.30
  Q 464.13 767.53 464.25 756.88
  Q 464.30 751.86 463.21 750.04
  C 460.51 745.54 453.03 745.31 449.87 749.25
  Q 448.14 751.42 448.33 756.05
  C 448.53 761.04 447.79 767.01 448.07 773.56
  Q 448.42 781.67 448.05 791.83
  C 447.78 799.11 448.40 805.91 448.27 812.56
  C 448.18 817.10 449.42 821.14 454.16 821.73
  Q 462.99 822.83 464.56 815.05
  A 5.47 5.14 50.8 0 0 464.65 813.79
  Q 464.10 802.96 464.08 801.75
  Q 463.92 793.10 464.69 790.32
  C 466.63 783.26 473.08 779.85 479.55 783.66
  C 481.16 784.61 482.59 787.30 482.69 789.02
  Q 482.89 792.52 483.30 814.46
  C 483.43 821.34 489.89 823.05 495.35 820.87
  C 497.22 820.12 498.83 817.73 498.95 815.74
  Q 499.76 802.10 499.01 784.99
  C 498.27 767.83 475.43 761.72 465.29 774.51
  A 0.38 0.38 0.0 0 1 464.61 774.30"
/>
<path stroke="#a1a4a5" vector-effect="non-scaling-stroke" d="
  M 587.90 773.86
  Q 587.98 770.69 588.09 759.78
  C 588.15 753.54 588.31 747.49 580.94 746.60
  Q 574.34 745.81 572.55 751.48
  A 3.70 3.35 -38.3 0 0 572.38 752.49
  Q 571.90 768.71 572.19 777.60
  C 572.43 785.11 571.44 795.01 571.86 801.19
  Q 572.34 808.26 572.36 814.23
  C 572.39 823.66 585.76 824.24 587.06 815.56
  A 0.50 0.50 0.0 0 1 587.96 815.34
  Q 592.13 821.07 599.58 822.09
  Q 616.41 824.41 625.01 809.49
  C 630.53 799.92 630.15 787.34 623.60 778.26
  Q 613.76 764.64 596.60 768.79
  Q 591.73 769.97 588.65 774.12
  A 0.42 0.42 0.0 0 1 587.90 773.86"
/>
<path stroke="#a1a4a5" vector-effect="non-scaling-stroke" d="
  M 310.62 785.67
  Q 314.61 786.04 317.35 783.62
  C 321.15 780.25 320.56 774.45 316.25 771.96
  C 302.75 764.15 282.58 766.27 275.09 781.64
  Q 268.18 795.82 275.21 808.78
  C 282.86 822.86 300.24 825.65 313.88 819.34
  C 316.68 818.04 319.72 815.37 319.84 812.51
  Q 320.05 807.30 315.32 805.21
  C 310.02 802.87 307.19 806.62 303.75 807.47
  C 291.18 810.58 281.66 795.28 291.74 786.14
  Q 296.03 782.24 302.18 782.80
  C 304.92 783.05 306.74 784.19 309.58 785.41
  A 3.53 3.53 0.0 0 0 310.62 785.67"
/>
<path stroke="#a1a4a5" vector-effect="non-scaling-stroke" d="
  M 391.59 795.13
  Q 391.61 800.71 392.95 804.63
  C 395.96 813.51 404.57 820.62 413.93 822.13
  Q 419.05 822.95 425.55 821.90
  C 430.71 821.07 441.31 817.22 439.19 810.32
  Q 437.51 804.83 431.21 804.33
  A 2.62 2.57 -53.4 0 0 430.01 804.52
  Q 425.79 806.26 425.06 806.53
  C 418.16 809.12 409.88 806.80 408.06 798.70
  Q 407.85 797.78 407.84 795.06
  Q 407.83 792.34 408.03 791.43
  C 409.78 783.31 418.05 780.92 424.97 783.46
  Q 425.70 783.72 429.93 785.43
  A 2.62 2.57 53.0 0 0 431.13 785.61
  Q 437.43 785.06 439.06 779.55
  C 441.13 772.63 430.50 768.87 425.33 768.08
  Q 418.82 767.09 413.71 767.95
  C 404.36 769.53 395.81 776.71 392.87 785.61
  Q 391.57 789.55 391.59 795.13"
/>
<path stroke="#a1a4a5" vector-effect="non-scaling-stroke" d="
  M 524.71 800.58
  A 0.53 0.53 0.0 0 1 525.24 799.92
  Q 537.37 800.22 555.74 799.61
  C 561.29 799.43 562.69 794.57 562.16 789.84
  C 560.97 779.24 553.25 770.00 542.77 768.11
  Q 530.24 765.84 519.93 772.37
  C 514.72 775.67 512.11 780.32 510.25 785.80
  C 507.13 795.03 508.49 803.48 513.98 811.62
  Q 517.90 817.42 525.57 820.27
  Q 538.57 825.10 551.67 819.87
  Q 555.32 818.41 557.88 815.85
  C 562.87 810.82 557.52 802.61 551.00 805.00
  Q 549.66 805.49 543.79 807.99
  C 537.01 810.89 526.78 808.61 524.71 800.58"
/>
<path stroke="#a1a4a5" vector-effect="non-scaling-stroke" d="
  M 324.77 794.99
  Q 324.78 803.65 329.73 811.81
  C 336.55 823.08 356.74 827.09 365.22 815.36
  A 0.54 0.54 0.0 0 1 366.18 815.54
  Q 367.90 822.28 374.98 821.50
  Q 381.92 820.73 381.79 813.70
  C 381.64 806.13 381.41 799.94 381.41 794.96
  C 381.40 789.98 381.63 783.79 381.77 776.22
  Q 381.90 769.19 374.96 768.43
  Q 367.87 767.65 366.16 774.39
  A 0.54 0.54 0.0 0 1 365.20 774.58
  C 356.71 762.85 336.52 766.88 329.71 778.15
  Q 324.77 786.32 324.77 794.99"
/>
<path stroke="#a1a4a5" vector-effect="non-scaling-stroke" d="
  M 736.0957 794.6259
  A 28.31 27.62 -1.0 0 0 707.3080 767.5042
  A 28.31 27.62 -1.0 0 0 679.4843 795.6141
  A 28.31 27.62 -1.0 0 0 708.2720 822.7358
  A 28.31 27.62 -1.0 0 0 736.0957 794.6259"
/>
<path stroke="#a1a4a5" vector-effect="non-scaling-stroke" d="
  M 654.74 775.88
  Q 653.19 766.62 643.78 768.51
  A 3.46 3.44 -63.6 0 0 642.90 768.81
  Q 638.43 771.05 638.63 777.61
  C 638.85 785.05 639.38 792.66 638.91 800.88
  Q 638.67 805.04 638.86 811.52
  C 639.04 817.61 640.75 822.35 647.79 821.84
  C 654.79 821.32 655.22 816.67 655.01 810.35
  Q 654.71 801.39 655.24 793.79
  Q 655.84 785.24 663.21 783.62
  C 665.37 783.15 669.32 784.06 671.28 783.53
  Q 676.73 782.05 677.38 777.03
  C 677.96 772.53 675.69 768.63 670.94 768.13
  Q 660.42 767.01 655.56 776.01
  A 0.44 0.44 0.0 0 1 654.74 775.88"
/>
<path stroke="#9ed4d0" vector-effect="non-scaling-stroke" d="
  M 470.7989 319.9287
  A 3.44 3.44 0.0 0 0 468.0364 315.9243
  L 440.7522 310.9167
  A 3.44 3.44 0.0 0 0 436.7477 313.6792
  L 436.6611 314.1513
  A 3.44 3.44 0.0 0 0 439.4236 318.1557
  L 466.7078 323.1633
  A 3.44 3.44 0.0 0 0 470.7123 320.4008
  L 470.7989 319.9287"
/>
<path stroke="#f5bb9b" vector-effect="non-scaling-stroke" d="
  M 559.1115 279.4807
  A 3.74 3.74 0.0 0 0 558.7610 274.2032
  L 558.6557 274.1110
  A 3.74 3.74 0.0 0 0 553.3781 274.4615
  L 534.9085 295.5593
  A 3.74 3.74 0.0 0 0 535.2590 300.8368
  L 535.3643 300.9290
  A 3.74 3.74 0.0 0 0 540.6419 300.5785
  L 559.1115 279.4807"
/>
<path stroke="#f5bb9b" vector-effect="non-scaling-stroke" d="
  M 547.95 320.29
  C 548.40 322.66 550.94 324.01 553.28 323.41
  Q 567.14 319.81 578.88 318.24
  A 5.40 5.37 30.0 0 0 580.18 317.90
  Q 583.14 316.69 582.59 313.76
  Q 582.04 310.83 578.84 310.78
  A 5.40 5.37 -51.4 0 0 577.50 310.94
  Q 566.00 313.75 551.78 315.44
  C 549.38 315.72 547.50 317.91 547.95 320.29"
/>
<path stroke="#f5bb9b" vector-effect="non-scaling-stroke" d="
  M 577.62 531.76
  L 577.62 521.16
  A 0.59 0.59 0.0 0 0 577.03 520.57
  C 567.91 520.54 566.32 514.19 566.49 506.00
  C 566.63 499.41 566.98 491.40 562.88 485.22
  C 562.09 484.02 560.69 482.88 560.20 481.89
  A 0.92 0.91 -34.1 0 1 560.42 480.79
  C 567.22 474.96 566.19 464.21 566.33 454.05
  Q 566.49 442.88 577.32 442.01
  A 0.48 0.47 88.1 0 0 577.76 441.53
  L 577.76 431.29
  A 0.75 0.75 0.0 0 0 577.08 430.54
  C 560.18 428.99 553.54 442.60 553.52 457.56
  Q 553.52 458.99 553.39 466.70
  Q 553.29 473.10 548.30 475.47
  C 547.13 476.02 544.57 475.98 543.42 476.11
  A 0.64 0.64 0.0 0 0 542.85 476.75
  L 542.85 486.38
  A 0.65 0.65 0.0 0 0 543.50 487.03
  C 551.84 487.03 554.04 492.55 553.69 499.95
  C 553.47 504.42 553.26 513.71 555.25 518.77
  Q 561.07 533.56 577.16 532.26
  A 0.50 0.50 0.0 0 0 577.62 531.76"
/>
<path stroke="#f5bb9b" vector-effect="non-scaling-stroke" d="
  M 609.32 521.73
  L 609.32 531.25
  A 1.18 1.18 0.0 0 0 610.48 532.43
  C 624.02 532.62 632.75 524.23 633.25 511.12
  Q 633.50 504.32 633.46 499.04
  Q 633.38 486.89 644.15 487.17
  A 0.73 0.72 -89.2 0 0 644.89 486.44
  L 644.89 476.65
  A 0.61 0.61 0.0 0 0 644.26 476.04
  Q 643.14 476.08 640.47 475.52
  Q 635.68 474.50 634.48 469.51
  C 632.77 462.42 633.21 453.73 632.89 448.89
  C 631.98 435.54 622.66 430.42 610.23 430.52
  A 0.56 0.55 -0.5 0 0 609.68 431.07
  L 609.68 441.19
  A 0.73 0.72 -87.9 0 0 610.35 441.92
  Q 620.08 442.69 620.65 452.55
  Q 621.17 461.44 621.62 468.39
  C 621.94 473.28 623.89 477.49 626.91 481.10
  A 0.75 0.75 0.0 0 1 626.87 482.12
  Q 621.50 487.48 621.09 495.58
  Q 620.71 503.03 620.63 509.72
  C 620.57 515.02 618.81 519.46 613.19 520.81
  C 612.24 521.03 611.02 520.81 609.93 521.00
  A 0.74 0.74 0.0 0 0 609.32 521.73"
/>
<path stroke="#a1a4a5" vector-effect="non-scaling-stroke" d="
  M 612.2481 793.0862
  A 10.93 10.93 0.0 0 0 601.0172 782.4656
  L 598.9180 782.5242
  A 10.93 10.93 0.0 0 0 588.2975 793.7552
  L 588.3919 797.1338
  A 10.93 10.93 0.0 0 0 599.6228 807.7544
  L 601.7220 807.6958
  A 10.93 10.93 0.0 0 0 612.3425 796.4648
  L 612.2481 793.0862"
/>
<path stroke="#a1a4a5" vector-effect="non-scaling-stroke" d="
  M 536.38 789.38
  Q 541.74 789.42 546.91 789.86
  A 0.85 0.85 0.0 0 0 547.79 788.75
  C 546.11 783.53 541.91 780.17 536.45 780.13
  C 530.99 780.09 526.73 783.38 524.98 788.58
  A 0.85 0.85 0.0 0 0 525.84 789.70
  Q 531.02 789.34 536.38 789.38"
/>
<path stroke="#a1a4a5" vector-effect="non-scaling-stroke" d="
  M 354.6400 782.2781
  A 12.94 12.26 -83.7 0 0 341.0340 793.7947
  A 12.94 12.26 -83.7 0 0 351.8000 808.0019
  A 12.94 12.26 -83.7 0 0 365.4060 796.4853
  A 12.94 12.26 -83.7 0 0 354.6400 782.2781"
/>
<path stroke="#a1a4a5" vector-effect="non-scaling-stroke" d="
  M 709.2867 782.5122
  A 12.78 12.16 -83.5 0 0 695.7582 793.8334
  A 12.78 12.16 -83.5 0 0 706.3933 807.9078
  A 12.78 12.16 -83.5 0 0 719.9218 796.5866
  A 12.78 12.16 -83.5 0 0 709.2867 782.5122"
/>
</g>
<path fill="#ffffff" d="
  M 1024.00 0.00
  L 1024.00 1024.00
  L 0.00 1024.00
  L 0.00 0.00
  L 1024.00 0.00
  Z
  M 487.30 292.86
  Q 487.35 286.59 486.06 278.25
  Q 484.90 270.78 482.94 263.86
  Q 478.69 248.93 468.53 236.99
  Q 447.45 212.22 416.32 208.09
  Q 406.98 206.86 398.73 207.90
  C 389.07 209.12 378.59 211.52 369.53 216.52
  C 357.93 222.94 347.13 231.68 339.86 242.87
  C 331.09 256.36 325.41 272.56 326.19 288.60
  Q 326.66 298.26 328.57 307.09
  C 331.89 322.37 343.68 339.56 356.18 349.08
  Q 365.72 356.35 381.51 362.47
  Q 386.47 364.39 391.50 365.02
  C 405.33 366.75 419.71 366.27 432.52 361.80
  Q 436.45 360.43 442.80 356.77
  Q 449.80 352.73 452.71 350.93
  C 462.43 344.91 468.15 337.72 474.47 328.74
  C 480.64 319.98 482.77 310.93 485.59 300.88
  Q 485.70 300.51 485.63 299.73
  A 0.45 0.45 0.0 0 0 484.82 299.50
  Q 482.67 302.41 479.58 300.61
  A 8.60 8.53 -5.6 0 1 477.43 298.86
  L 460.23 279.65
  A 4.17 4.16 44.2 0 1 460.15 274.19
  L 460.27 274.04
  A 3.36 3.36 0.0 0 1 465.06 274.01
  Q 475.81 284.82 485.42 297.19
  A 0.41 0.41 0.0 0 0 486.15 296.97
  Q 486.25 295.74 486.91 294.52
  Q 487.30 293.81 487.30 292.86
  Z
  M 592.99 363.50
  Q 593.62 363.96 594.37 364.10
  Q 609.26 367.01 626.03 365.30
  C 636.25 364.26 645.33 359.67 654.59 354.32
  C 664.64 348.51 671.31 341.83 678.01 332.36
  C 690.58 314.59 695.62 290.61 690.06 268.73
  C 685.66 251.46 677.06 237.20 663.20 226.05
  Q 653.64 218.35 645.54 214.78
  Q 616.37 201.92 585.69 211.98
  C 569.75 217.21 555.66 228.59 545.95 241.95
  Q 539.53 250.80 536.18 261.71
  C 532.24 274.55 529.95 289.00 533.06 302.02
  Q 537.02 318.57 546.93 333.18
  A 1.21 1.21 0.0 0 0 548.51 333.57
  Q 563.00 325.77 577.72 332.42
  C 589.06 337.54 595.49 350.48 592.64 362.59
  A 0.88 0.87 24.2 0 0 592.99 363.50
  Z
  M 513.5985 260.7807
  A 3.61 3.61 0.0 0 0 509.9697 257.1897
  L 509.7497 257.1908
  A 3.61 3.61 0.0 0 0 506.1586 260.8197
  L 506.3015 288.0993
  A 3.61 3.61 0.0 0 0 509.9303 291.6903
  L 510.1503 291.6892
  A 3.61 3.61 0.0 0 0 513.7414 288.0603
  L 513.5985 260.7807
  Z
  M 510.19 341.18
  Q 510.75 341.18 510.83 340.63
  Q 511.46 335.87 513.10 332.13
  C 515.48 326.68 522.60 323.48 528.20 322.72
  A 0.46 0.46 0.0 0 0 528.23 321.81
  C 522.05 320.52 516.59 318.35 513.35 313.14
  C 511.78 310.62 511.11 306.93 510.45 304.08
  Q 510.33 303.54 509.95 303.54
  Q 509.57 303.54 509.45 304.08
  C 508.82 306.94 508.20 310.64 506.66 313.18
  C 503.49 318.43 498.06 320.67 491.90 322.04
  A 0.46 0.46 0.0 0 0 491.94 322.95
  C 497.55 323.64 504.71 326.75 507.16 332.17
  Q 508.85 335.89 509.54 340.64
  Q 509.62 341.19 510.19 341.18
  Z
  M 520.74 349.58
  Q 516.08 348.97 509.50 348.99
  Q 500.50 349.03 485.79 349.14
  C 479.76 349.19 472.75 348.21 466.63 348.64
  Q 464.83 348.77 463.31 350.31
  Q 456.13 357.56 448.63 361.41
  Q 441.55 365.04 431.53 368.41
  C 418.43 372.81 401.49 374.32 387.41 370.68
  C 378.83 368.45 372.22 366.94 365.52 362.68
  A 1.11 1.10 -44.4 0 0 364.35 362.67
  Q 360.00 365.33 356.20 369.54
  A 2.98 2.96 -26.3 0 0 355.45 371.73
  Q 356.12 381.10 351.79 391.82
  C 347.34 402.81 339.16 409.32 327.90 412.45
  A 1.88 1.87 -4.0 0 0 326.53 414.02
  C 325.13 424.43 323.07 434.86 322.12 444.08
  Q 317.67 487.46 318.41 530.07
  C 318.60 541.11 320.35 555.23 320.38 565.75
  C 320.45 599.82 315.81 635.61 311.91 670.73
  C 310.62 682.35 315.96 693.89 327.13 698.91
  C 341.65 705.44 356.65 694.84 361.91 681.42
  Q 367.41 667.41 372.16 651.71
  Q 382.98 616.01 390.63 585.80
  A 0.98 0.98 0.0 0 1 391.46 585.08
  L 424.05 581.30
  A 0.77 0.77 0.0 0 1 424.90 581.97
  C 428.30 610.44 429.90 640.06 431.10 669.19
  C 431.47 678.13 432.90 685.24 437.39 691.17
  C 442.99 698.55 454.02 702.58 463.19 699.95
  C 474.71 696.65 481.11 685.85 483.27 674.48
  Q 486.34 658.36 487.66 646.63
  Q 492.50 603.43 493.30 559.00
  Q 493.93 524.61 494.02 514.75
  Q 494.36 481.41 490.49 447.26
  Q 490.04 443.25 488.85 435.32
  A 0.50 0.50 0.0 0 0 488.23 434.91
  Q 476.67 438.03 462.65 440.05
  A 1.04 1.04 0.0 0 0 461.85 441.51
  C 465.10 448.61 464.76 454.63 464.71 463.02
  C 464.66 470.50 466.71 476.07 475.18 476.00
  A 0.82 0.82 0.0 0 1 476.01 476.82
  L 476.01 486.61
  A 0.70 0.70 0.0 0 1 475.31 487.31
  Q 465.47 487.38 465.04 497.02
  Q 464.87 500.82 464.90 510.75
  Q 464.93 519.10 459.36 525.64
  Q 452.76 533.40 441.72 532.12
  A 0.69 0.68 -86.7 0 1 441.12 531.44
  L 441.12 521.53
  A 0.64 0.64 0.0 0 1 441.77 520.89
  Q 451.55 521.03 452.01 511.40
  Q 452.47 501.68 452.49 496.77
  Q 452.53 488.27 458.35 482.50
  A 0.77 0.77 0.0 0 0 458.38 481.43
  Q 452.77 475.37 452.58 467.69
  Q 452.27 454.68 452.17 453.29
  C 451.81 447.86 449.32 442.50 442.97 442.56
  Q 423.16 442.75 409.91 441.39
  A 1.20 1.19 30.8 0 0 409.14 441.58
  L 408.24 442.19
  A 1.26 1.25 -63.7 0 1 407.60 442.41
  C 400.88 442.77 398.09 448.29 398.10 454.38
  Q 398.12 464.57 396.54 472.51
  Q 395.52 477.58 391.90 480.88
  A 0.95 0.94 47.3 0 0 391.85 482.22
  C 398.31 489.07 398.18 497.87 397.96 506.59
  Q 397.79 513.38 399.35 516.17
  Q 402.09 521.07 408.44 520.66
  A 0.70 0.70 0.0 0 1 409.18 521.36
  L 409.18 531.36
  A 0.94 0.93 88.0 0 1 408.31 532.30
  C 395.46 533.25 385.68 524.75 385.39 511.84
  Q 385.07 497.35 385.05 497.09
  C 384.78 491.45 381.47 487.38 375.75 487.33
  Q 375.10 487.33 374.58 487.29
  A 0.55 0.55 0.0 0 1 374.07 486.74
  L 374.07 476.89
  A 0.76 0.76 0.0 0 1 374.65 476.15
  C 376.07 475.80 378.22 475.98 379.65 475.41
  Q 383.87 473.72 384.51 469.48
  Q 385.47 463.09 385.72 450.79
  Q 385.87 443.30 390.68 438.00
  A 0.60 0.59 -63.6 0 0 390.35 437.01
  Q 385.44 436.11 382.38 433.98
  A 0.81 0.81 0.0 0 1 382.77 432.51
  Q 383.07 432.49 384.58 432.63
  C 390.33 433.17 397.00 434.70 403.14 434.99
  C 424.04 435.96 441.13 436.29 459.12 434.14
  Q 466.69 433.24 474.28 431.30
  C 482.27 429.27 490.73 427.97 498.43 424.91
  Q 502.99 423.09 520.41 415.84
  Q 525.52 413.72 529.78 411.09
  C 537.31 406.43 539.21 405.25 546.14 401.32
  C 554.81 396.40 562.54 389.94 569.98 383.98
  C 579.50 376.34 586.61 369.91 587.11 357.76
  Q 587.47 349.12 581.36 342.93
  Q 572.52 333.98 560.94 336.45
  Q 552.60 338.23 546.93 341.95
  Q 530.25 352.89 528.04 354.05
  C 519.49 358.55 508.85 365.39 500.09 368.83
  Q 488.46 373.40 477.56 377.07
  C 465.11 381.26 451.65 382.48 438.75 382.95
  Q 419.22 383.68 400.56 379.69
  Q 400.09 379.59 399.74 379.37
  A 0.51 0.51 0.0 0 1 399.89 378.44
  Q 405.67 377.01 412.25 376.97
  Q 424.02 376.90 435.70 376.89
  C 450.20 376.87 463.95 373.37 477.48 370.21
  Q 479.65 369.70 480.98 369.16
  C 483.91 367.95 486.55 367.28 489.52 365.91
  C 499.34 361.41 511.01 357.17 520.99 350.64
  A 0.58 0.58 0.0 0 0 520.74 349.58
  Z
  M 357.84 358.27
  L 349.06 351.27
  A 0.83 0.78 60.6 0 0 348.48 351.09
  Q 335.87 352.25 326.07 358.56
  C 318.41 363.50 312.79 373.11 310.23 381.50
  C 308.06 388.57 308.17 398.52 314.32 403.69
  C 321.17 409.44 330.21 406.66 336.30 401.23
  Q 342.06 396.09 346.01 388.66
  C 348.71 383.59 349.15 379.65 348.81 373.68
  C 348.58 369.65 348.70 367.33 351.51 364.77
  Q 353.72 362.75 357.83 359.54
  A 0.81 0.81 0.0 0 0 357.84 358.27
  Z
  M 671.15 351.14
  A 1.66 1.65 -62.2 0 0 669.85 351.55
  L 661.96 358.61
  A 0.57 0.57 0.0 0 0 661.99 359.48
  C 664.67 361.59 669.43 365.96 669.57 369.26
  Q 669.98 378.73 670.35 380.37
  C 673.41 393.84 683.28 408.96 698.94 405.68
  C 713.29 402.68 710.39 383.18 705.58 374.04
  C 701.85 366.98 695.31 359.40 687.86 355.98
  Q 679.60 352.18 671.15 351.14
  Z
  M 518.12 424.29
  A 0.20 0.20 0.0 0 0 518.16 424.66
  L 529.79 427.46
  A 0.92 0.92 0.0 0 1 530.49 428.49
  C 526.19 458.86 524.25 489.29 524.56 521.25
  Q 524.84 550.88 526.18 587.99
  Q 527.89 635.26 534.79 672.56
  Q 536.24 680.43 538.31 684.64
  C 541.27 690.67 546.33 696.48 552.83 698.95
  C 561.53 702.27 571.28 700.53 578.17 694.20
  C 584.72 688.18 587.12 679.36 587.38 670.77
  C 588.25 642.64 589.71 611.00 593.64 581.66
  A 0.30 0.30 0.0 0 1 593.98 581.40
  L 627.02 584.91
  A 1.19 1.18 -3.4 0 1 628.05 585.82
  Q 634.70 614.11 644.18 645.91
  Q 648.80 661.42 652.87 672.65
  Q 655.78 680.69 658.30 685.45
  C 661.98 692.42 669.52 698.64 677.44 700.22
  C 695.50 703.84 708.65 687.89 706.66 671.01
  Q 703.16 641.20 700.77 618.25
  C 698.37 595.23 696.60 569.79 698.24 545.07
  Q 699.06 532.61 698.64 520.23
  Q 698.41 513.28 695.28 504.71
  Q 688.13 485.14 682.40 473.08
  C 680.84 469.80 678.37 465.09 675.72 461.33
  Q 666.93 448.86 660.27 435.98
  Q 659.44 434.37 659.16 432.94
  A 0.31 0.31 0.0 0 1 659.67 432.66
  Q 671.13 443.27 678.78 454.72
  Q 680.95 457.97 691.03 475.52
  C 694.04 480.75 696.53 487.42 698.09 492.40
  Q 706.72 520.05 710.95 547.53
  C 712.79 559.52 723.52 570.87 736.29 568.87
  C 747.58 567.11 755.03 557.06 755.91 545.92
  C 757.14 530.46 754.80 515.06 751.32 498.64
  C 746.15 474.26 737.72 452.22 724.61 431.36
  C 719.09 422.57 714.99 416.00 708.74 408.98
  A 0.55 0.55 0.0 0 0 708.01 408.90
  Q 703.02 412.52 696.72 413.05
  C 687.88 413.79 678.29 407.16 672.41 400.56
  Q 665.92 393.28 664.26 384.11
  C 663.59 380.43 663.84 376.38 663.89 372.25
  Q 663.91 369.94 661.87 368.18
  Q 657.93 364.77 655.03 362.85
  A 0.90 0.88 49.1 0 0 654.16 362.78
  Q 639.52 369.63 625.77 372.04
  Q 609.60 374.87 591.67 370.10
  A 0.84 0.84 0.0 0 0 590.74 370.47
  Q 582.42 384.26 570.12 392.90
  Q 559.43 400.40 544.87 410.11
  Q 542.41 411.74 539.11 413.35
  Q 533.38 416.14 518.12 424.29
  Z
  M 464.61 774.30
  Q 464.13 767.53 464.25 756.88
  Q 464.30 751.86 463.21 750.04
  C 460.51 745.54 453.03 745.31 449.87 749.25
  Q 448.14 751.42 448.33 756.05
  C 448.53 761.04 447.79 767.01 448.07 773.56
  Q 448.42 781.67 448.05 791.83
  C 447.78 799.11 448.40 805.91 448.27 812.56
  C 448.18 817.10 449.42 821.14 454.16 821.73
  Q 462.99 822.83 464.56 815.05
  A 5.47 5.14 50.8 0 0 464.65 813.79
  Q 464.10 802.96 464.08 801.75
  Q 463.92 793.10 464.69 790.32
  C 466.63 783.26 473.08 779.85 479.55 783.66
  C 481.16 784.61 482.59 787.30 482.69 789.02
  Q 482.89 792.52 483.30 814.46
  C 483.43 821.34 489.89 823.05 495.35 820.87
  C 497.22 820.12 498.83 817.73 498.95 815.74
  Q 499.76 802.10 499.01 784.99
  C 498.27 767.83 475.43 761.72 465.29 774.51
  A 0.38 0.38 0.0 0 1 464.61 774.30
  Z
  M 587.90 773.86
  Q 587.98 770.69 588.09 759.78
  C 588.15 753.54 588.31 747.49 580.94 746.60
  Q 574.34 745.81 572.55 751.48
  A 3.70 3.35 -38.3 0 0 572.38 752.49
  Q 571.90 768.71 572.19 777.60
  C 572.43 785.11 571.44 795.01 571.86 801.19
  Q 572.34 808.26 572.36 814.23
  C 572.39 823.66 585.76 824.24 587.06 815.56
  A 0.50 0.50 0.0 0 1 587.96 815.34
  Q 592.13 821.07 599.58 822.09
  Q 616.41 824.41 625.01 809.49
  C 630.53 799.92 630.15 787.34 623.60 778.26
  Q 613.76 764.64 596.60 768.79
  Q 591.73 769.97 588.65 774.12
  A 0.42 0.42 0.0 0 1 587.90 773.86
  Z
  M 310.62 785.67
  Q 314.61 786.04 317.35 783.62
  C 321.15 780.25 320.56 774.45 316.25 771.96
  C 302.75 764.15 282.58 766.27 275.09 781.64
  Q 268.18 795.82 275.21 808.78
  C 282.86 822.86 300.24 825.65 313.88 819.34
  C 316.68 818.04 319.72 815.37 319.84 812.51
  Q 320.05 807.30 315.32 805.21
  C 310.02 802.87 307.19 806.62 303.75 807.47
  C 291.18 810.58 281.66 795.28 291.74 786.14
  Q 296.03 782.24 302.18 782.80
  C 304.92 783.05 306.74 784.19 309.58 785.41
  A 3.53 3.53 0.0 0 0 310.62 785.67
  Z
  M 391.59 795.13
  Q 391.61 800.71 392.95 804.63
  C 395.96 813.51 404.57 820.62 413.93 822.13
  Q 419.05 822.95 425.55 821.90
  C 430.71 821.07 441.31 817.22 439.19 810.32
  Q 437.51 804.83 431.21 804.33
  A 2.62 2.57 -53.4 0 0 430.01 804.52
  Q 425.79 806.26 425.06 806.53
  C 418.16 809.12 409.88 806.80 408.06 798.70
  Q 407.85 797.78 407.84 795.06
  Q 407.83 792.34 408.03 791.43
  C 409.78 783.31 418.05 780.92 424.97 783.46
  Q 425.70 783.72 429.93 785.43
  A 2.62 2.57 53.0 0 0 431.13 785.61
  Q 437.43 785.06 439.06 779.55
  C 441.13 772.63 430.50 768.87 425.33 768.08
  Q 418.82 767.09 413.71 767.95
  C 404.36 769.53 395.81 776.71 392.87 785.61
  Q 391.57 789.55 391.59 795.13
  Z
  M 524.71 800.58
  A 0.53 0.53 0.0 0 1 525.24 799.92
  Q 537.37 800.22 555.74 799.61
  C 561.29 799.43 562.69 794.57 562.16 789.84
  C 560.97 779.24 553.25 770.00 542.77 768.11
  Q 530.24 765.84 519.93 772.37
  C 514.72 775.67 512.11 780.32 510.25 785.80
  C 507.13 795.03 508.49 803.48 513.98 811.62
  Q 517.90 817.42 525.57 820.27
  Q 538.57 825.10 551.67 819.87
  Q 555.32 818.41 557.88 815.85
  C 562.87 810.82 557.52 802.61 551.00 805.00
  Q 549.66 805.49 543.79 807.99
  C 537.01 810.89 526.78 808.61 524.71 800.58
  Z
  M 324.77 794.99
  Q 324.78 803.65 329.73 811.81
  C 336.55 823.08 356.74 827.09 365.22 815.36
  A 0.54 0.54 0.0 0 1 366.18 815.54
  Q 367.90 822.28 374.98 821.50
  Q 381.92 820.73 381.79 813.70
  C 381.64 806.13 381.41 799.94 381.41 794.96
  C 381.40 789.98 381.63 783.79 381.77 776.22
  Q 381.90 769.19 374.96 768.43
  Q 367.87 767.65 366.16 774.39
  A 0.54 0.54 0.0 0 1 365.20 774.58
  C 356.71 762.85 336.52 766.88 329.71 778.15
  Q 324.77 786.32 324.77 794.99
  Z
  M 736.0957 794.6259
  A 28.31 27.62 -1.0 0 0 707.3080 767.5042
  A 28.31 27.62 -1.0 0 0 679.4843 795.6141
  A 28.31 27.62 -1.0 0 0 708.2720 822.7358
  A 28.31 27.62 -1.0 0 0 736.0957 794.6259
  Z
  M 654.74 775.88
  Q 653.19 766.62 643.78 768.51
  A 3.46 3.44 -63.6 0 0 642.90 768.81
  Q 638.43 771.05 638.63 777.61
  C 638.85 785.05 639.38 792.66 638.91 800.88
  Q 638.67 805.04 638.86 811.52
  C 639.04 817.61 640.75 822.35 647.79 821.84
  C 654.79 821.32 655.22 816.67 655.01 810.35
  Q 654.71 801.39 655.24 793.79
  Q 655.84 785.24 663.21 783.62
  C 665.37 783.15 669.32 784.06 671.28 783.53
  Q 676.73 782.05 677.38 777.03
  C 677.96 772.53 675.69 768.63 670.94 768.13
  Q 660.42 767.01 655.56 776.01
  A 0.44 0.44 0.0 0 1 654.74 775.88
  Z"
/>
<path fill="#3da8a1" d="
  M 487.30 292.86
  Q 487.30 293.81 486.91 294.52
  Q 486.25 295.74 486.15 296.97
  A 0.41 0.41 0.0 0 1 485.42 297.19
  Q 475.81 284.82 465.06 274.01
  A 3.36 3.36 0.0 0 0 460.27 274.04
  L 460.15 274.19
  A 4.17 4.16 44.2 0 0 460.23 279.65
  L 477.43 298.86
  A 8.60 8.53 -5.6 0 0 479.58 300.61
  Q 482.67 302.41 484.82 299.50
  A 0.45 0.45 0.0 0 1 485.63 299.73
  Q 485.70 300.51 485.59 300.88
  C 482.77 310.93 480.64 319.98 474.47 328.74
  C 468.15 337.72 462.43 344.91 452.71 350.93
  Q 449.80 352.73 442.80 356.77
  Q 436.45 360.43 432.52 361.80
  C 419.71 366.27 405.33 366.75 391.50 365.02
  Q 386.47 364.39 381.51 362.47
  Q 365.72 356.35 356.18 349.08
  C 343.68 339.56 331.89 322.37 328.57 307.09
  Q 326.66 298.26 326.19 288.60
  C 325.41 272.56 331.09 256.36 339.86 242.87
  C 347.13 231.68 357.93 222.94 369.53 216.52
  C 378.59 211.52 389.07 209.12 398.73 207.90
  Q 406.98 206.86 416.32 208.09
  Q 447.45 212.22 468.53 236.99
  Q 478.69 248.93 482.94 263.86
  Q 484.90 270.78 486.06 278.25
  Q 487.35 286.59 487.30 292.86
  Z
  M 470.7989 319.9287
  A 3.44 3.44 0.0 0 0 468.0364 315.9243
  L 440.7522 310.9167
  A 3.44 3.44 0.0 0 0 436.7477 313.6792
  L 436.6611 314.1513
  A 3.44 3.44 0.0 0 0 439.4236 318.1557
  L 466.7078 323.1633
  A 3.44 3.44 0.0 0 0 470.7123 320.4008
  L 470.7989 319.9287
  Z"
/>
<path fill="#ea7636" d="
  M 592.99 363.50
  A 0.88 0.87 24.2 0 1 592.64 362.59
  C 595.49 350.48 589.06 337.54 577.72 332.42
  Q 563.00 325.77 548.51 333.57
  A 1.21 1.21 0.0 0 1 546.93 333.18
  Q 537.02 318.57 533.06 302.02
  C 529.95 289.00 532.24 274.55 536.18 261.71
  Q 539.53 250.80 545.95 241.95
  C 555.66 228.59 569.75 217.21 585.69 211.98
  Q 616.37 201.92 645.54 214.78
  Q 653.64 218.35 663.20 226.05
  C 677.06 237.20 685.66 251.46 690.06 268.73
  C 695.62 290.61 690.58 314.59 678.01 332.36
  C 671.31 341.83 664.64 348.51 654.59 354.32
  C 645.33 359.67 636.25 364.26 626.03 365.30
  Q 609.26 367.01 594.37 364.10
  Q 593.62 363.96 592.99 363.50
  Z
  M 559.1115 279.4807
  A 3.74 3.74 0.0 0 0 558.7610 274.2032
  L 558.6557 274.1110
  A 3.74 3.74 0.0 0 0 553.3781 274.4615
  L 534.9085 295.5593
  A 3.74 3.74 0.0 0 0 535.2590 300.8368
  L 535.3643 300.9290
  A 3.74 3.74 0.0 0 0 540.6419 300.5785
  L 559.1115 279.4807
  Z
  M 547.95 320.29
  C 548.40 322.66 550.94 324.01 553.28 323.41
  Q 567.14 319.81 578.88 318.24
  A 5.40 5.37 30.0 0 0 580.18 317.90
  Q 583.14 316.69 582.59 313.76
  Q 582.04 310.83 578.84 310.78
  A 5.40 5.37 -51.4 0 0 577.50 310.94
  Q 566.00 313.75 551.78 315.44
  C 549.38 315.72 547.50 317.91 547.95 320.29
  Z"
/>
<rect fill="#ea7636" x="-3.72" y="-17.25" transform="translate(509.95,274.44) rotate(-0.3)" width="7.44" height="34.50" rx="3.61"/>
<rect fill="#ffffff" x="-3.81" y="-17.76" transform="translate(547.01,287.52) rotate(41.2)" width="7.62" height="35.52" rx="3.74"/>
<path fill="#ea7636" d="
  M 509.95 303.54
  Q 510.33 303.54 510.45 304.08
  C 511.11 306.93 511.78 310.62 513.35 313.14
  C 516.59 318.35 522.05 320.52 528.23 321.81
  A 0.46 0.46 0.0 0 1 528.20 322.72
  C 522.60 323.48 515.48 326.68 513.10 332.13
  Q 511.46 335.87 510.83 340.63
  Q 510.75 341.18 510.19 341.18
  Q 509.62 341.19 509.54 340.64
  Q 508.85 335.89 507.16 332.17
  C 504.71 326.75 497.55 323.64 491.94 322.95
  A 0.46 0.46 0.0 0 1 491.90 322.04
  C 498.06 320.67 503.49 318.43 506.66 313.18
  C 508.20 310.64 508.82 306.94 509.45 304.08
  Q 509.57 303.54 509.95 303.54
  Z"
/>
<path fill="#ffffff" d="
  M 582.59 313.76
  Q 583.14 316.69 580.18 317.90
  A 5.40 5.37 30.0 0 1 578.88 318.24
  Q 567.14 319.81 553.28 323.41
  C 550.94 324.01 548.40 322.66 547.95 320.29
  C 547.50 317.91 549.38 315.72 551.78 315.44
  Q 566.00 313.75 577.50 310.94
  A 5.40 5.37 -51.4 0 1 578.84 310.78
  Q 582.04 310.83 582.59 313.76
  Z"
/>
<rect fill="#ffffff" x="-17.31" y="-3.68" transform="translate(453.73,317.04) rotate(10.4)" width="34.62" height="7.36" rx="3.44"/>
<path fill="#3da8a1" d="
  M 520.74 349.58
  A 0.58 0.58 0.0 0 1 520.99 350.64
  C 511.01 357.17 499.34 361.41 489.52 365.91
  C 486.55 367.28 483.91 367.95 480.98 369.16
  Q 479.65 369.70 477.48 370.21
  C 463.95 373.37 450.20 376.87 435.70 376.89
  Q 424.02 376.90 412.25 376.97
  Q 405.67 377.01 399.89 378.44
  A 0.51 0.51 0.0 0 0 399.74 379.37
  Q 400.09 379.59 400.56 379.69
  Q 419.22 383.68 438.75 382.95
  C 451.65 382.48 465.11 381.26 477.56 377.07
  Q 488.46 373.40 500.09 368.83
  C 508.85 365.39 519.49 358.55 528.04 354.05
  Q 530.25 352.89 546.93 341.95
  Q 552.60 338.23 560.94 336.45
  Q 572.52 333.98 581.36 342.93
  Q 587.47 349.12 587.11 357.76
  C 586.61 369.91 579.50 376.34 569.98 383.98
  C 562.54 389.94 554.81 396.40 546.14 401.32
  C 539.21 405.25 537.31 406.43 529.78 411.09
  Q 525.52 413.72 520.41 415.84
  Q 502.99 423.09 498.43 424.91
  C 490.73 427.97 482.27 429.27 474.28 431.30
  Q 466.69 433.24 459.12 434.14
  C 441.13 436.29 424.04 435.96 403.14 434.99
  C 397.00 434.70 390.33 433.17 384.58 432.63
  Q 383.07 432.49 382.77 432.51
  A 0.81 0.81 0.0 0 0 382.38 433.98
  Q 385.44 436.11 390.35 437.01
  A 0.60 0.59 -63.6 0 1 390.68 438.00
  Q 385.87 443.30 385.72 450.79
  Q 385.47 463.09 384.51 469.48
  Q 383.87 473.72 379.65 475.41
  C 378.22 475.98 376.07 475.80 374.65 476.15
  A 0.76 0.76 0.0 0 0 374.07 476.89
  L 374.07 486.74
  A 0.55 0.55 0.0 0 0 374.58 487.29
  Q 375.10 487.33 375.75 487.33
  C 381.47 487.38 384.78 491.45 385.05 497.09
  Q 385.07 497.35 385.39 511.84
  C 385.68 524.75 395.46 533.25 408.31 532.30
  A 0.94 0.93 88.0 0 0 409.18 531.36
  L 409.18 521.36
  A 0.70 0.70 0.0 0 0 408.44 520.66
  Q 402.09 521.07 399.35 516.17
  Q 397.79 513.38 397.96 506.59
  C 398.18 497.87 398.31 489.07 391.85 482.22
  A 0.95 0.94 47.3 0 1 391.90 480.88
  Q 395.52 477.58 396.54 472.51
  Q 398.12 464.57 398.10 454.38
  C 398.09 448.29 400.88 442.77 407.60 442.41
  A 1.26 1.25 -63.7 0 0 408.24 442.19
  L 409.14 441.58
  A 1.20 1.19 30.8 0 1 409.91 441.39
  Q 423.16 442.75 442.97 442.56
  C 449.32 442.50 451.81 447.86 452.17 453.29
  Q 452.27 454.68 452.58 467.69
  Q 452.77 475.37 458.38 481.43
  A 0.77 0.77 0.0 0 1 458.35 482.50
  Q 452.53 488.27 452.49 496.77
  Q 452.47 501.68 452.01 511.40
  Q 451.55 521.03 441.77 520.89
  A 0.64 0.64 0.0 0 0 441.12 521.53
  L 441.12 531.44
  A 0.69 0.68 -86.7 0 0 441.72 532.12
  Q 452.76 533.40 459.36 525.64
  Q 464.93 519.10 464.90 510.75
  Q 464.87 500.82 465.04 497.02
  Q 465.47 487.38 475.31 487.31
  A 0.70 0.70 0.0 0 0 476.01 486.61
  L 476.01 476.82
  A 0.82 0.82 0.0 0 0 475.18 476.00
  C 466.71 476.07 464.66 470.50 464.71 463.02
  C 464.76 454.63 465.10 448.61 461.85 441.51
  A 1.04 1.04 0.0 0 1 462.65 440.05
  Q 476.67 438.03 488.23 434.91
  A 0.50 0.50 0.0 0 1 488.85 435.32
  Q 490.04 443.25 490.49 447.26
  Q 494.36 481.41 494.02 514.75
  Q 493.93 524.61 493.30 559.00
  Q 492.50 603.43 487.66 646.63
  Q 486.34 658.36 483.27 674.48
  C 481.11 685.85 474.71 696.65 463.19 699.95
  C 454.02 702.58 442.99 698.55 437.39 691.17
  C 432.90 685.24 431.47 678.13 431.10 669.19
  C 429.90 640.06 428.30 610.44 424.90 581.97
  A 0.77 0.77 0.0 0 0 424.05 581.30
  L 391.46 585.08
  A 0.98 0.98 0.0 0 0 390.63 585.80
  Q 382.98 616.01 372.16 651.71
  Q 367.41 667.41 361.91 681.42
  C 356.65 694.84 341.65 705.44 327.13 698.91
  C 315.96 693.89 310.62 682.35 311.91 670.73
  C 315.81 635.61 320.45 599.82 320.38 565.75
  C 320.35 555.23 318.60 541.11 318.41 530.07
  Q 317.67 487.46 322.12 444.08
  C 323.07 434.86 325.13 424.43 326.53 414.02
  A 1.88 1.87 -4.0 0 1 327.90 412.45
  C 339.16 409.32 347.34 402.81 351.79 391.82
  Q 356.12 381.10 355.45 371.73
  A 2.98 2.96 -26.3 0 1 356.20 369.54
  Q 360.00 365.33 364.35 362.67
  A 1.11 1.10 -44.4 0 1 365.52 362.68
  C 372.22 366.94 378.83 368.45 387.41 370.68
  C 401.49 374.32 418.43 372.81 431.53 368.41
  Q 441.55 365.04 448.63 361.41
  Q 456.13 357.56 463.31 350.31
  Q 464.83 348.77 466.63 348.64
  C 472.75 348.21 479.76 349.19 485.79 349.14
  Q 500.50 349.03 509.50 348.99
  Q 516.08 348.97 520.74 349.58
  Z"
/>
<path fill="#ea7636" d="
  M 357.84 358.27
  A 0.81 0.81 0.0 0 1 357.83 359.54
  Q 353.72 362.75 351.51 364.77
  C 348.70 367.33 348.58 369.65 348.81 373.68
  C 349.15 379.65 348.71 383.59 346.01 388.66
  Q 342.06 396.09 336.30 401.23
  C 330.21 406.66 321.17 409.44 314.32 403.69
  C 308.17 398.52 308.06 388.57 310.23 381.50
  C 312.79 373.11 318.41 363.50 326.07 358.56
  Q 335.87 352.25 348.48 351.09
  A 0.83 0.78 60.6 0 1 349.06 351.27
  L 357.84 358.27
  Z"
/>
<path fill="#3da8a1" d="
  M 671.15 351.14
  Q 679.60 352.18 687.86 355.98
  C 695.31 359.40 701.85 366.98 705.58 374.04
  C 710.39 383.18 713.29 402.68 698.94 405.68
  C 683.28 408.96 673.41 393.84 670.35 380.37
  Q 669.98 378.73 669.57 369.26
  C 669.43 365.96 664.67 361.59 661.99 359.48
  A 0.57 0.57 0.0 0 1 661.96 358.61
  L 669.85 351.55
  A 1.66 1.65 -62.2 0 1 671.15 351.14
  Z"
/>
<path fill="#ea7636" d="
  M 518.12 424.29
  Q 533.38 416.14 539.11 413.35
  Q 542.41 411.74 544.87 410.11
  Q 559.43 400.40 570.12 392.90
  Q 582.42 384.26 590.74 370.47
  A 0.84 0.84 0.0 0 1 591.67 370.10
  Q 609.60 374.87 625.77 372.04
  Q 639.52 369.63 654.16 362.78
  A 0.90 0.88 49.1 0 1 655.03 362.85
  Q 657.93 364.77 661.87 368.18
  Q 663.91 369.94 663.89 372.25
  C 663.84 376.38 663.59 380.43 664.26 384.11
  Q 665.92 393.28 672.41 400.56
  C 678.29 407.16 687.88 413.79 696.72 413.05
  Q 703.02 412.52 708.01 408.90
  A 0.55 0.55 0.0 0 1 708.74 408.98
  C 714.99 416.00 719.09 422.57 724.61 431.36
  C 737.72 452.22 746.15 474.26 751.32 498.64
  C 754.80 515.06 757.14 530.46 755.91 545.92
  C 755.03 557.06 747.58 567.11 736.29 568.87
  C 723.52 570.87 712.79 559.52 710.95 547.53
  Q 706.72 520.05 698.09 492.40
  C 696.53 487.42 694.04 480.75 691.03 475.52
  Q 680.95 457.97 678.78 454.72
  Q 671.13 443.27 659.67 432.66
  A 0.31 0.31 0.0 0 0 659.16 432.94
  Q 659.44 434.37 660.27 435.98
  Q 666.93 448.86 675.72 461.33
  C 678.37 465.09 680.84 469.80 682.40 473.08
  Q 688.13 485.14 695.28 504.71
  Q 698.41 513.28 698.64 520.23
  Q 699.06 532.61 698.24 545.07
  C 696.60 569.79 698.37 595.23 700.77 618.25
  Q 703.16 641.20 706.66 671.01
  C 708.65 687.89 695.50 703.84 677.44 700.22
  C 669.52 698.64 661.98 692.42 658.30 685.45
  Q 655.78 680.69 652.87 672.65
  Q 648.80 661.42 644.18 645.91
  Q 634.70 614.11 628.05 585.82
  A 1.19 1.18 -3.4 0 0 627.02 584.91
  L 593.98 581.40
  A 0.30 0.30 0.0 0 0 593.64 581.66
  C 589.71 611.00 588.25 642.64 587.38 670.77
  C 587.12 679.36 584.72 688.18 578.17 694.20
  C 571.28 700.53 561.53 702.27 552.83 698.95
  C 546.33 696.48 541.27 690.67 538.31 684.64
  Q 536.24 680.43 534.79 672.56
  Q 527.89 635.26 526.18 587.99
  Q 524.84 550.88 524.56 521.25
  C 524.25 489.29 526.19 458.86 530.49 428.49
  A 0.92 0.92 0.0 0 0 529.79 427.46
  L 518.16 424.66
  A 0.20 0.20 0.0 0 1 518.12 424.29
  Z
  M 577.62 531.76
  L 577.62 521.16
  A 0.59 0.59 0.0 0 0 577.03 520.57
  C 567.91 520.54 566.32 514.19 566.49 506.00
  C 566.63 499.41 566.98 491.40 562.88 485.22
  C 562.09 484.02 560.69 482.88 560.20 481.89
  A 0.92 0.91 -34.1 0 1 560.42 480.79
  C 567.22 474.96 566.19 464.21 566.33 454.05
  Q 566.49 442.88 577.32 442.01
  A 0.48 0.47 88.1 0 0 577.76 441.53
  L 577.76 431.29
  A 0.75 0.75 0.0 0 0 577.08 430.54
  C 560.18 428.99 553.54 442.60 553.52 457.56
  Q 553.52 458.99 553.39 466.70
  Q 553.29 473.10 548.30 475.47
  C 547.13 476.02 544.57 475.98 543.42 476.11
  A 0.64 0.64 0.0 0 0 542.85 476.75
  L 542.85 486.38
  A 0.65 0.65 0.0 0 0 543.50 487.03
  C 551.84 487.03 554.04 492.55 553.69 499.95
  C 553.47 504.42 553.26 513.71 555.25 518.77
  Q 561.07 533.56 577.16 532.26
  A 0.50 0.50 0.0 0 0 577.62 531.76
  Z
  M 609.32 521.73
  L 609.32 531.25
  A 1.18 1.18 0.0 0 0 610.48 532.43
  C 624.02 532.62 632.75 524.23 633.25 511.12
  Q 633.50 504.32 633.46 499.04
  Q 633.38 486.89 644.15 487.17
  A 0.73 0.72 -89.2 0 0 644.89 486.44
  L 644.89 476.65
  A 0.61 0.61 0.0 0 0 644.26 476.04
  Q 643.14 476.08 640.47 475.52
  Q 635.68 474.50 634.48 469.51
  C 632.77 462.42 633.21 453.73 632.89 448.89
  C 631.98 435.54 622.66 430.42 610.23 430.52
  A 0.56 0.55 -0.5 0 0 609.68 431.07
  L 609.68 441.19
  A 0.73 0.72 -87.9 0 0 610.35 441.92
  Q 620.08 442.69 620.65 452.55
  Q 621.17 461.44 621.62 468.39
  C 621.94 473.28 623.89 477.49 626.91 481.10
  A 0.75 0.75 0.0 0 1 626.87 482.12
  Q 621.50 487.48 621.09 495.58
  Q 620.71 503.03 620.63 509.72
  C 620.57 515.02 618.81 519.46 613.19 520.81
  C 612.24 521.03 611.02 520.81 609.93 521.00
  A 0.74 0.74 0.0 0 0 609.32 521.73
  Z"
/>
<path fill="#ffffff" d="
  M 577.62 531.76
  A 0.50 0.50 0.0 0 1 577.16 532.26
  Q 561.07 533.56 555.25 518.77
  C 553.26 513.71 553.47 504.42 553.69 499.95
  C 554.04 492.55 551.84 487.03 543.50 487.03
  A 0.65 0.65 0.0 0 1 542.85 486.38
  L 542.85 476.75
  A 0.64 0.64 0.0 0 1 543.42 476.11
  C 544.57 475.98 547.13 476.02 548.30 475.47
  Q 553.29 473.10 553.39 466.70
  Q 553.52 458.99 553.52 457.56
  C 553.54 442.60 560.18 428.99 577.08 430.54
  A 0.75 0.75 0.0 0 1 577.76 431.29
  L 577.76 441.53
  A 0.48 0.47 88.1 0 1 577.32 442.01
  Q 566.49 442.88 566.33 454.05
  C 566.19 464.21 567.22 474.96 560.42 480.79
  A 0.92 0.91 -34.1 0 0 560.20 481.89
  C 560.69 482.88 562.09 484.02 562.88 485.22
  C 566.98 491.40 566.63 499.41 566.49 506.00
  C 566.32 514.19 567.91 520.54 577.03 520.57
  A 0.59 0.59 0.0 0 1 577.62 521.16
  L 577.62 531.76
  Z"
/>
<path fill="#ffffff" d="
  M 609.93 521.00
  C 611.02 520.81 612.24 521.03 613.19 520.81
  C 618.81 519.46 620.57 515.02 620.63 509.72
  Q 620.71 503.03 621.09 495.58
  Q 621.50 487.48 626.87 482.12
  A 0.75 0.75 0.0 0 0 626.91 481.10
  C 623.89 477.49 621.94 473.28 621.62 468.39
  Q 621.17 461.44 620.65 452.55
  Q 620.08 442.69 610.35 441.92
  A 0.73 0.72 -87.9 0 1 609.68 441.19
  L 609.68 431.07
  A 0.56 0.55 -0.5 0 1 610.23 430.52
  C 622.66 430.42 631.98 435.54 632.89 448.89
  C 633.21 453.73 632.77 462.42 634.48 469.51
  Q 635.68 474.50 640.47 475.52
  Q 643.14 476.08 644.26 476.04
  A 0.61 0.61 0.0 0 1 644.89 476.65
  L 644.89 486.44
  A 0.73 0.72 -89.2 0 1 644.15 487.17
  Q 633.38 486.89 633.46 499.04
  Q 633.50 504.32 633.25 511.12
  C 632.75 524.23 624.02 532.62 610.48 532.43
  A 1.18 1.18 0.0 0 1 609.32 531.25
  L 609.32 521.73
  A 0.74 0.74 0.0 0 1 609.93 521.00
  Z"
/>
<path fill="#42484a" d="
  M 464.61 774.30
  A 0.38 0.38 0.0 0 0 465.29 774.51
  C 475.43 761.72 498.27 767.83 499.01 784.99
  Q 499.76 802.10 498.95 815.74
  C 498.83 817.73 497.22 820.12 495.35 820.87
  C 489.89 823.05 483.43 821.34 483.30 814.46
  Q 482.89 792.52 482.69 789.02
  C 482.59 787.30 481.16 784.61 479.55 783.66
  C 473.08 779.85 466.63 783.26 464.69 790.32
  Q 463.92 793.10 464.08 801.75
  Q 464.10 802.96 464.65 813.79
  A 5.47 5.14 50.8 0 1 464.56 815.05
  Q 462.99 822.83 454.16 821.73
  C 449.42 821.14 448.18 817.10 448.27 812.56
  C 448.40 805.91 447.78 799.11 448.05 791.83
  Q 448.42 781.67 448.07 773.56
  C 447.79 767.01 448.53 761.04 448.33 756.05
  Q 448.14 751.42 449.87 749.25
  C 453.03 745.31 460.51 745.54 463.21 750.04
  Q 464.30 751.86 464.25 756.88
  Q 464.13 767.53 464.61 774.30
  Z"
/>
<path fill="#42484a" d="
  M 587.90 773.86
  A 0.42 0.42 0.0 0 0 588.65 774.12
  Q 591.73 769.97 596.60 768.79
  Q 613.76 764.64 623.60 778.26
  C 630.15 787.34 630.53 799.92 625.01 809.49
  Q 616.41 824.41 599.58 822.09
  Q 592.13 821.07 587.96 815.34
  A 0.50 0.50 0.0 0 0 587.06 815.56
  C 585.76 824.24 572.39 823.66 572.36 814.23
  Q 572.34 808.26 571.86 801.19
  C 571.44 795.01 572.43 785.11 572.19 777.60
  Q 571.90 768.71 572.38 752.49
  A 3.70 3.35 -38.3 0 1 572.55 751.48
  Q 574.34 745.81 580.94 746.60
  C 588.31 747.49 588.15 753.54 588.09 759.78
  Q 587.98 770.69 587.90 773.86
  Z
  M 612.2481 793.0862
  A 10.93 10.93 0.0 0 0 601.0172 782.4656
  L 598.9180 782.5242
  A 10.93 10.93 0.0 0 0 588.2975 793.7552
  L 588.3919 797.1338
  A 10.93 10.93 0.0 0 0 599.6228 807.7544
  L 601.7220 807.6958
  A 10.93 10.93 0.0 0 0 612.3425 796.4648
  L 612.2481 793.0862
  Z"
/>
<path fill="#42484a" d="
  M 309.58 785.41
  C 306.74 784.19 304.92 783.05 302.18 782.80
  Q 296.03 782.24 291.74 786.14
  C 281.66 795.28 291.18 810.58 303.75 807.47
  C 307.19 806.62 310.02 802.87 315.32 805.21
  Q 320.05 807.30 319.84 812.51
  C 319.72 815.37 316.68 818.04 313.88 819.34
  C 300.24 825.65 282.86 822.86 275.21 808.78
  Q 268.18 795.82 275.09 781.64
  C 282.58 766.27 302.75 764.15 316.25 771.96
  C 320.56 774.45 321.15 780.25 317.35 783.62
  Q 314.61 786.04 310.62 785.67
  A 3.53 3.53 0.0 0 1 309.58 785.41
  Z"
/>
<path fill="#42484a" d="
  M 407.84 795.06
  Q 407.85 797.78 408.06 798.70
  C 409.88 806.80 418.16 809.12 425.06 806.53
  Q 425.79 806.26 430.01 804.52
  A 2.62 2.57 -53.4 0 1 431.21 804.33
  Q 437.51 804.83 439.19 810.32
  C 441.31 817.22 430.71 821.07 425.55 821.90
  Q 419.05 822.95 413.93 822.13
  C 404.57 820.62 395.96 813.51 392.95 804.63
  Q 391.61 800.71 391.59 795.13
  Q 391.57 789.55 392.87 785.61
  C 395.81 776.71 404.36 769.53 413.71 767.95
  Q 418.82 767.09 425.33 768.08
  C 430.50 768.87 441.13 772.63 439.06 779.55
  Q 437.43 785.06 431.13 785.61
  A 2.62 2.57 53.0 0 1 429.93 785.43
  Q 425.70 783.72 424.97 783.46
  C 418.05 780.92 409.78 783.31 408.03 791.43
  Q 407.83 792.34 407.84 795.06
  Z"
/>
<path fill="#42484a" d="
  M 524.71 800.58
  C 526.78 808.61 537.01 810.89 543.79 807.99
  Q 549.66 805.49 551.00 805.00
  C 557.52 802.61 562.87 810.82 557.88 815.85
  Q 555.32 818.41 551.67 819.87
  Q 538.57 825.10 525.57 820.27
  Q 517.90 817.42 513.98 811.62
  C 508.49 803.48 507.13 795.03 510.25 785.80
  C 512.11 780.32 514.72 775.67 519.93 772.37
  Q 530.24 765.84 542.77 768.11
  C 553.25 770.00 560.97 779.24 562.16 789.84
  C 562.69 794.57 561.29 799.43 555.74 799.61
  Q 537.37 800.22 525.24 799.92
  A 0.53 0.53 0.0 0 0 524.71 800.58
  Z
  M 536.38 789.38
  Q 541.74 789.42 546.91 789.86
  A 0.85 0.85 0.0 0 0 547.79 788.75
  C 546.11 783.53 541.91 780.17 536.45 780.13
  C 530.99 780.09 526.73 783.38 524.98 788.58
  A 0.85 0.85 0.0 0 0 525.84 789.70
  Q 531.02 789.34 536.38 789.38
  Z"
/>
<path fill="#42484a" d="
  M 381.41 794.96
  C 381.41 799.94 381.64 806.13 381.79 813.70
  Q 381.92 820.73 374.98 821.50
  Q 367.90 822.28 366.18 815.54
  A 0.54 0.54 0.0 0 0 365.22 815.36
  C 356.74 827.09 336.55 823.08 329.73 811.81
  Q 324.78 803.65 324.77 794.99
  Q 324.77 786.32 329.71 778.15
  C 336.52 766.88 356.71 762.85 365.20 774.58
  A 0.54 0.54 0.0 0 0 366.16 774.39
  Q 367.87 767.65 374.96 768.43
  Q 381.90 769.19 381.77 776.22
  C 381.63 783.79 381.40 789.98 381.41 794.96
  Z
  M 354.6400 782.2781
  A 12.94 12.26 -83.7 0 0 341.0340 793.7947
  A 12.94 12.26 -83.7 0 0 351.8000 808.0019
  A 12.94 12.26 -83.7 0 0 365.4060 796.4853
  A 12.94 12.26 -83.7 0 0 354.6400 782.2781
  Z"
/>
<path fill="#42484a" d="
  M 736.0957 794.6259
  A 28.31 27.62 -1.0 0 1 708.2720 822.7358
  A 28.31 27.62 -1.0 0 1 679.4843 795.6141
  A 28.31 27.62 -1.0 0 1 707.3080 767.5042
  A 28.31 27.62 -1.0 0 1 736.0957 794.6259
  Z
  M 709.2867 782.5122
  A 12.78 12.16 -83.5 0 0 695.7582 793.8334
  A 12.78 12.16 -83.5 0 0 706.3933 807.9078
  A 12.78 12.16 -83.5 0 0 719.9218 796.5866
  A 12.78 12.16 -83.5 0 0 709.2867 782.5122
  Z"
/>
<path fill="#42484a" d="
  M 654.74 775.88
  A 0.44 0.44 0.0 0 0 655.56 776.01
  Q 660.42 767.01 670.94 768.13
  C 675.69 768.63 677.96 772.53 677.38 777.03
  Q 676.73 782.05 671.28 783.53
  C 669.32 784.06 665.37 783.15 663.21 783.62
  Q 655.84 785.24 655.24 793.79
  Q 654.71 801.39 655.01 810.35
  C 655.22 816.67 654.79 821.32 647.79 821.84
  C 640.75 822.35 639.04 817.61 638.86 811.52
  Q 638.67 805.04 638.91 800.88
  C 639.38 792.66 638.85 785.05 638.63 777.61
  Q 638.43 771.05 642.90 768.81
  A 3.46 3.44 -63.6 0 1 643.78 768.51
  Q 653.19 766.62 654.74 775.88
  Z"
/>
<path fill="#ffffff" d="
  M 536.45 780.13
  C 541.91 780.17 546.11 783.53 547.79 788.75
  A 0.85 0.85 0.0 0 1 546.91 789.86
  Q 541.74 789.42 536.38 789.38
  Q 531.02 789.34 525.84 789.70
  A 0.85 0.85 0.0 0 1 524.98 788.58
  C 526.73 783.38 530.99 780.09 536.45 780.13
  Z"
/>
<ellipse fill="#ffffff" cx="0.00" cy="0.00" transform="translate(353.22,795.14) rotate(-83.7)" rx="12.94" ry="12.26"/>
<rect fill="#ffffff" x="-11.98" y="-12.62" transform="translate(600.32,795.11) rotate(-1.6)" width="23.96" height="25.24" rx="10.93"/>
<ellipse fill="#ffffff" cx="0.00" cy="0.00" transform="translate(707.84,795.21) rotate(-83.5)" rx="12.78" ry="12.16"/>
</svg>
